<?xml version="1.0" encoding="UTF-8" standalone="no"?>
<!-- Created with Inkscape (http://www.inkscape.org/) -->

<svg
   xmlns:dc="http://purl.org/dc/elements/1.1/"
   xmlns:cc="http://creativecommons.org/ns#"
   xmlns:rdf="http://www.w3.org/1999/02/22-rdf-syntax-ns#"
   xmlns:svg="http://www.w3.org/2000/svg"
   xmlns="http://www.w3.org/2000/svg"
   xmlns:sodipodi="http://sodipodi.sourceforge.net/DTD/sodipodi-0.dtd"
   xmlns:inkscape="http://www.inkscape.org/namespaces/inkscape"
   id="svg3004"
   version="1.1"
   inkscape:version="0.48.2 r9819"
   width="945"
   height="720"
   xml:space="preserve"
   sodipodi:docname="density.svg"><metadata
     id="metadata3010"><rdf:RDF><cc:Work
         rdf:about=""><dc:format>image/svg+xml</dc:format><dc:type
           rdf:resource="http://purl.org/dc/dcmitype/StillImage" /><dc:title></dc:title></cc:Work></rdf:RDF></metadata><defs
     id="defs3008" /><sodipodi:namedview
     pagecolor="#ffffff"
     bordercolor="#666666"
     borderopacity="1"
     objecttolerance="10"
     gridtolerance="10"
     guidetolerance="10"
     inkscape:pageopacity="0"
     inkscape:pageshadow="2"
     inkscape:window-width="1920"
     inkscape:window-height="990"
     id="namedview3006"
     showgrid="false"
     inkscape:zoom="0.46354778"
     inkscape:cx="-186.25649"
     inkscape:cy="507.18737"
     inkscape:window-x="0"
     inkscape:window-y="30"
     inkscape:window-maximized="1"
     inkscape:current-layer="g3012" /><g
     id="g3012"
     inkscape:groupmode="layer"
     inkscape:label="ink_ext_XXXXXX"
     transform="matrix(0,1.25,1.25,0,0,0)"><g
       id="g3014"
       transform="scale(0.1,0.1)"><path
         d="m 4071.71,500 -0.76,2.191 m 1189.05,0 -952,0 m -237.05,0 -12.34,34.981 m 1201.39,0 -952,0 m -249.39,0 -12.75,34.988 m 1214.14,0 -952,0 m -262.14,0 -13.14,34.988 m 1227.28,0 -952,0 m -275.28,0 -13.53,34.981 m 1240.81,0 -952,0 m -288.81,0 -13.89,34.992 m 1254.7,0 -952,0 m -302.7,0 -14.25,34.988 m 1268.95,0 -952,0 m -316.95,0 -14.58,34.981 m 1283.53,0 -952,0 m -331.53,0 -14.9,34.988 m 1298.43,0 -952,0 m -346.43,0 -15.21,34.992 m 1313.64,0 -952,0 m -361.64,0 -15.5,34.981 m 1329.14,0 -952,0 m -377.14,0 -15.77,34.988 m 1344.91,0 -952,0 m -392.91,0 -16.02,34.992 m 1360.93,0 -952,0 m -408.93,0 -16.26,34.981 m 1377.19,0 -952,0 m -425.19,0 -16.47,34.988 m 1393.66,0 -952,0 m -441.66,0 -16.66,34.99 m 1410.32,0 -952,0 m -458.32,0 -16.84,34.98 m 1427.16,0 -952,0 m -475.16,0 -16.99,34.99 m 1444.15,0 -952,0 m -492.15,0 -17.12,34.99 m 1461.27,0 -952,0 m -509.27,0 -17.23,34.98 m 1478.5,0 -952,0 m -526.5,0 -17.31,34.99 m 1495.81,0 -952,0 m -543.81,0 -17.37,34.99 m 1513.18,0 -952,0 m -561.18,0 -17.41,34.98 m 1530.59,0 -952,0 m -578.59,0 -17.4,34.99 m 1547.99,0 -952,0 m -595.99,0 -17.39,34.99 m 1565.38,0 -952,0 m -613.38,0 -17.33,34.98 m 1582.71,0 -952,0 m -630.71,0 -17.25,34.99 m 1599.96,0 -952,0 m -647.96,0 -17.13,34.99 m 1617.09,0 -952,0 m -665.09,0 -16.99,34.98 m 1634.08,0 -952,0 m -682.08,0 -16.8,34.99 m 1650.88,0 -952,0 m -698.88,0 -16.59,34.99 m 1667.47,0 -952,0 m -715.47,0 -16.33,34.98 m 1683.8,0 -952,0 m -731.8,0 -16.03,34.99 m 1699.83,0 -952,0 m -747.83,0 -15.69,34.99 m 1715.52,0 -952,0 m -763.52,0 -15.31,34.98 m 1730.83,0 -952,0 m -778.83,0 -14.88,34.99 m 1745.71,0 -952,0 m -793.71,0 -14.4,34.99 m 1760.11,0 -952,0 m -808.11,0 -13.87,34.98 m 1773.98,0 -952,0 m -821.98,0 -13.28,34.99 m 1787.26,0 -952,0 m -835.26,0 -12.65,34.99 m 1799.91,0 -952,0 m -847.91,0 -11.93,34.98 m 1811.84,0 -952,0 m -859.84,0 -11.17,34.99 m 1823.01,0 -952,0 m -871.01,0 -10.32,34.99 m 1833.33,0 -952,0 m -881.33,0 -9.41,34.98 m 1842.74,0 -952,0 m -890.74,0 -8.42,34.99 m 1851.16,0 -952,0 m -899.16,0 -7.35,34.99 m 1858.51,0 -952,0 m -906.51,0 -6.17,34.98 m 1864.68,0 -952,0 m -912.68,0 -4.92,34.99 m 1869.6,0 -952,0 m -917.6,0 -3.56,34.99 m 1873.16,0 -952,0 m -921.16,0 -2.09,34.98 m 1875.25,0 -952,0 m -923.25,0 -0.5,34.99 m 1875.75,0 -952,0 m -923.75,0 1.2,34.99 m 1874.55,0 -952,0 m -922.55,0 3.04,34.98 m 1871.51,0 -952,0 m -919.51,0 5.01,34.99 m 1866.5,0 -952,0 m -914.5,0 7.12,34.99 m 1859.38,0 -952,0 m -907.38,0 9.39,34.98 m 1849.99,0 -952,0 m -897.99,0 11.8,34.99 m 1838.19,0 -952,0 m -886.19,0 14.39,34.99 m 1823.8,0 -952,0 m -871.8,0 17.12,34.98 m 1806.68,0 -952,0 m -854.68,0 20.02,34.99 m 1786.66,0 -952,0 m -834.66,0 11.14,17.49 m 1775.52,0 -952,0 m -823.52,0 11.92,17.5 m 1763.6,0 -952,0 m -811.6,0 12.72,17.49 m 1750.88,0 -952,0 m -798.88,0 13.53,17.49 m 1737.35,0 -952,0 m -785.35,0 14.34,17.5 m 1723.01,0 -952,0 m -771.01,0 15.19,17.49 m 1707.82,0 -952,0 m -755.82,0 16.02,17.49 m 1691.8,0 -952,0 m -739.8,0 16.87,17.5 m 1674.93,0 -952,0 m -722.93,0 17.72,17.49 m 1657.21,0 -952,0 m -705.21,0 18.56,17.49 m 1638.65,0 -952,0 m -686.65,0 19.39,17.5 m 1619.26,0 -952,0 m -667.26,0 20.22,17.49 m 1599.04,0 -952,0 m -647.04,0 21.01,17.49 m 1578.03,0 -952,0 m -626.03,0 21.78,17.5 m 1556.25,0 -952,0 m -604.25,0 45.69,34.98 m 1510.56,0 -952,0 m -558.56,0 48.15,34.99 m 1462.41,0 -952,0 m -510.41,0 49.97,34.99 m 1412.44,0 -952,0 m -460.44,0 50.92,34.98 m 1361.52,0 -952,0 m -409.52,0 50.73,34.99 m 1310.79,0 -952,0 m -358.79,0 49.17,34.99 m 1261.62,0 -952,0 m -309.62,0 23.51,17.49 m 1238.11,0 -952,0 m -286.11,0 22.51,17.49 m 1215.6,0 -952,0 m -263.6,0 21.29,17.5 m 1194.31,0 -952,0 m -242.31,0 19.87,17.49 m 1174.44,0 -952,0 m -222.44,0 18.24,17.49 m 1156.2,0 -952,0 m -204.2,0 16.42,17.5 m 1139.78,0 -952,0 m -187.78,0 14.46,17.49 m 1125.32,0 -952,0 m -173.32,0 12.35,17.49 m 1112.97,0 -952,0 m -160.97,0 10.14,17.5 m 1102.83,0 -952,0 m -150.83,0 7.85,17.49 m 1094.98,0 -952,0 m -142.98,0 5.43,17.49 m 1089.55,0 -952,0 m -137.55,0 2.83,17.5 m 1086.72,0 -952,0 m -134.72,0 0.33,8.74 m 1086.39,0 -952,0 m -134.39,0 -0.49,8.75 m 1086.88,0 -952,0 m -134.88,0 -1.4,8.75 m 1088.28,0 -952,0 m -136.28,0 -2.47,8.74 m 1090.75,0 -952,0 m -138.75,0 -3.73,8.75 m 1094.48,0 -952,0 m -142.48,0 -5.23,8.75 m 1099.71,0 -952,0 m -147.71,0 -7.07,8.74 m 1106.78,0 -952,0 m -154.78,0 -9.33,8.75 m 1116.11,0 -952,0 m -164.11,0 -12.12,8.75 m 1128.23,0 -952,0 m -176.23,0 -7.31,4.37 m 1135.54,0 -952,0 m -183.54,0 -8.27,4.37 m 1143.81,0 -952,0 m -191.81,0 -9.34,4.38 m 1153.15,0 -952,0 m -201.15,0 -10.52,4.37 m 1163.67,0 -952,0 m -211.67,0 -11.84,4.37 m 1175.51,0 -952,0 m -223.51,0 -13.29,4.38 m 1188.8,0 -952,0 m -236.8,0 -14.9,4.37 m 1203.7,0 -952,0 m -251.7,0 -16.68,4.37 m 1220.38,0 -952,0 m -268.38,0 -18.62,4.38 m 1239,0 -952,0 m -287,0 -20.77,4.37 m 1259.77,0 -952,0 m -307.77,0 -23.1,4.37 m 1282.87,0 -952,0 m -330.87,0 -25.65,4.38 m 1308.52,0 -952,0 m -356.52,0 -28.41,4.37 m 1336.93,0 -952,0 m -384.93,0 -15.31,2.19 m 1352.24,0 -952,0 m -400.24,0 -16.09,2.18 m 1368.33,0 -952,0 m -416.33,0 -16.89,2.19 m 1385.22,0 -952,0 m -433.22,0 -17.73,2.19 m 1402.95,0 -952,0 m -450.95,0 -18.58,2.18 m 1421.53,0 -952,0 m -469.53,0 -19.47,2.19 m 1441,0 -952,0 m -489,0 -20.39,2.19 m 1461.39,0 -952,0 m -509.39,0 -21.33,2.18 m 1482.72,0 -952,0 m -530.72,0 -22.3,2.19 m 1505.02,0 -952,0 m -553.02,0 -23.29,2.19 m 1528.31,0 -952,0 m -576.31,0 -24.31,2.18 m 1552.62,0 -952,0 m -600.62,0 -25.35,2.19 m 1577.97,0 -952,0 m -625.97,0 -26.42,2.19 m 1604.39,0 -952,0 m -652.39,0 -27.49,2.18 m 1631.88,0 -952,0 m -679.88,0 -28.59,2.19 m 1660.47,0 -952,0 m -708.47,0 -29.7,2.19 m 1690.17,0 -952,0 m -738.17,0 -30.83,2.18 m 1721,0 -952,0 m -769,0 -31.96,2.19 m 1752.96,0 -952,0 m -800.96,0 -33.09,2.19 m 1786.05,0 -952,0 m -834.05,0 -34.24,2.18 m 1820.29,0 -952,0 m -868.29,0 -35.37,2.19 m 1855.66,0 -952,0 m -903.66,0 -36.5,2.19 m 1892.16,0 -952,0 m -940.16,0 -37.62,2.18 m 1929.78,0 -952,0 m -977.78,0 -38.73,2.19 m 1968.51,0 -952,0 m -1016.51,0 -39.8,2.19 m 2008.31,0 -952,0 m -1056.31,0 -40.87,2.18 m 2049.18,0 -952,0 m -1097.18,0 -41.88,2.19 m 2091.06,0 -952,0 m -1139.06,0 -42.87,2.19 m 2133.93,0 -952,0 m -1181.93,0 -43.81,2.18 m 2177.74,0 -952,0 m -1225.74,0 -44.7,2.19 m 2222.44,0 -952,0 m -1270.44,0 -45.53,2.19 m 2267.97,0 -952,0 m -1315.97,0 -46.29,2.18 m 2314.26,0 -952,0 m -1362.26,0 -94.61,4.38 m 2408.87,0 -952,0 m -1456.87,0 -96.73,4.37 m 2505.6,0 -952,0 m -1553.6,0 -98.13,4.37 m 2603.73,0 -952,0 m -1651.73,0 -388.57,17.5 m 2992.3,0 -952,0 m -2040.3,0 -46.11,2.18 m 3038.41,0 -952,0 m -2086.41,0 -45.13,2.19 m 3083.54,0 -952,0 m -2131.54,0 -44.05,2.19 m 3127.59,0 -952,0 m -2175.59,0 -42.83,2.18 m 3170.42,0 -952,0 m -2218.42,0 -41.51,2.19 m 3211.93,0 -952,0 m -2259.93,0 -40.06,2.19 m 3251.99,0 -952,0 m -2299.99,0 -38.52,2.18 m 3290.51,0 -952,0 m -2338.51,0 -36.87,2.19 m 3327.38,0 -952,0 m -2375.38,0 -35.14,2.19 m 3362.52,0 -952,0 m -2410.52,0 -33.32,2.18 m 3395.84,0 -952,0 m -2443.84,0 -31.42,2.19 m 3427.26,0 -952,0 m -2475.26,0 -29.46,2.19 m 3456.72,0 -952,0 m -2504.72,0 -27.43,2.18 m 3484.15,0 -952,0 m -2532.15,0 -25.34,2.19 m 3509.49,0 -952,0 m -2557.49,0 -23.21,2.19 m 3532.7,0 -952,0 m -2580.7,0 -21.03,2.18 m 3553.73,0 -952,0 m -2601.73,0 -18.8,2.19 m 3572.53,0 -952,0 m -2620.53,0 -16.53,2.19 m 3589.06,0 -952,0 m -2637.06,0 -14.22,2.18 m 3603.28,0 -952,0 m -2651.28,0 -11.85,2.19 m 3615.13,0 -952,0 m -2663.13,0 -9.43,2.19 m 3624.56,0 -952,0 m -2672.56,0 -6.94,2.18 m 3631.5,0 -952,0 m -2679.5,0 -4.36,2.19 m 3635.86,0 -952,0 m -2683.86,0 -1.68,2.19 m 3637.54,0 -952,0 m -2685.54,0 1.11,2.18 m 3636.43,0 -952,0 m -2684.43,0 4.07,2.19 m 3632.36,0 -952,0 m -2680.36,0 7.19,2.19 m 3625.17,0 -952,0 m -2673.17,0 10.52,2.18 m 3614.65,0 -952,0 m -2662.65,0 14.1,2.19 m 3600.55,0 -952,0 m -2648.55,0 17.95,2.19 m 3582.6,0 -952,0 m -2630.6,0 22.1,2.18 m 3560.5,0 -952,0 m -2608.5,0 26.61,2.19 m 3533.89,0 -952,0 m -2581.89,0 31.48,2.19 m 3502.41,0 -952,0 m -2550.41,0 36.73,2.18 m 3465.68,0 -952,0 m -2513.68,0 42.39,2.19 m 3423.29,0 -952,0 m -2471.29,0 48.43,2.19 m 3374.86,0 -952,0 m -2422.86,0 54.85,2.18 m 3320.01,0 -952,0 m -2368.01,0 61.61,2.19 m 3258.4,0 -952,0 m -2306.4,0 68.63,2.19 m 3189.77,0 -952,0 m -2237.77,0 75.82,2.18 m 3113.95,0 -952,0 m -2161.95,0 83.06,2.19 m 3030.89,0 -952,0 m -2078.89,0 90.2,2.19 m 2940.69,0 -952,0 m -1988.69,0 97.05,2.18 m 2843.64,0 -952,0 m -1891.64,0 103.42,2.19 m 2740.22,0 -952,0 m -1788.22,0 109.06,2.19 m 2631.16,0 -952,0 m -1679.16,0 113.73,2.18 m 2517.43,0 -952,0 m -1565.43,0 117.23,2.19 m 2400.2,0 -952,0 m -1448.2,0 119.31,2.19 m 2280.89,0 -952,0 m -1328.89,0 464.59,8.74 m 1816.3,0 -952,0 m -864.3,0 104.23,2.19 m 1712.07,0 -952,0 m -760.07,0 96.28,2.19 m 1615.79,0 -952,0 m -663.79,0 87.11,2.18 m 1528.68,0 -952,0 m -576.68,0 77.07,2.19 m 1451.61,0 -952,0 m -499.61,0 66.51,2.19 m 1385.1,0 -952,0 m -433.1,0 55.8,2.18 m 1329.3,0 -952,0 m -377.3,0 45.28,2.19 m 1284.02,0 -952,0 m -332.02,0 35.15,2.19 m 1248.87,0 -952,0 m -296.87,0 25.54,2.18 m 1223.33,0 -952,0 m -271.33,0 16.41,2.19 m 1206.92,0 -952,0 m -254.92,0 7.48,2.19 m 1199.44,0 -952,0 m -247.44,0 -1.65,2.18 m 1201.09,0 -952,0 m -249.09,0 -11.64,2.19 m 1212.73,0 -952,0 m -260.73,0 -23.28,2.19 m 1236.01,0 -952,0 m -284.01,0 -37.43,2.18 m 1273.44,0 -952,0 m -321.44,0 -54.88,2.19 m 1328.32,0 -952,0 m -376.32,0 -76.25,2.19 m 1404.57,0 -952,0 m -452.57,0 -101.65,2.18 m 1506.22,0 -952,0 m -554.22,0 -130.5,2.19 m 1636.72,0 -952,0 m -684.72,0 -161.29,2.19 m 1798.01,0 -952,0 m -846.01,0 -191.55,2.18 m 1989.56,0 -952,0 m -1037.56,0 -217.95,2.19 m 2207.51,0 -952,0 m -1255.51,0 -236.74,2.19 m 2444.25,0 -952,0 m -1492.25,0 -244.57,2.18 m 2688.82,0 -952,0 m -1736.82,0 -239.28,2.19 m 2928.1,0 -952,0 m -1976.1,0 -220.67,2.19 m 3148.77,0 -952,0 m -2196.77,0 -190.73,2.18 m 3339.5,0 -952,0 m -2387.5,0 -153.21,2.19 m 3492.71,0 -952,0 m -2540.71,0 -112.48,2.19 m 3605.19,0 -952,0 m -2653.19,0 -72.02,2.18 m 3677.21,0 -952,0 m -2725.21,0 -33.01,2.19 m 3710.22,0 -952,0 m -2758.22,0 6.38,2.19 m 3703.84,0 -952,0 m -2751.84,0 50.8,2.18 m 3653.04,0 -952,0 m -2701.04,0 105.91,2.19 m 3547.13,0 -952,0 m -2595.13,0 175.04,2.19 m 3372.09,0 -952,0 m -2420.09,0 254.78,2.18 m 3117.31,0 -952,0 m -2165.31,0 331.43,2.19 m 2785.88,0 -952,0 m -1833.88,0 382.59,2.19 m 2403.29,0 -952,0 m -1451.29,0 386.51,2.18 m 2016.78,0 -952,0 m -1064.78,0 335.96,2.19 m 1680.82,0 -952,0 m -728.82,0 246.08,2.19 m 1434.74,0 -952,0 m -482.74,0 146.04,2.18 m 1288.7,0 -952,0 m -336.7,0 57.99,2.19 m 1230.71,0 -952,0 m -278.71,0 -21.5,2.19 m 1252.21,0 -952,0 m -300.21,0 -121.86,2.18 m 1374.07,0 -952,0 m -422.07,0 -272.83,2.19 m 1646.9,0 -952,0 m -694.9,0 -456.69,2.19 m 2103.59,0 -952,0 m -1151.59,0 -581.13,2.18 m 2684.72,0 -952,0 m -1732.72,0 -544.97,2.19 m 3229.69,0 -952,0 m -2277.69,0 -360.15,2.19 m 3589.84,0 -952,0 m -2637.84,0 -141.66,2.18 m 3731.5,0 -952,0 m -2779.5,0 59.87,2.19 m 3671.63,0 -952,0 m -2719.63,0 326.63,2.19 m 3345,0 -952,0 m -2393,0 667.47,2.18 m 2677.53,0 -952,0 m -1725.53,0 794.91,2.19 m 1882.62,0 -952,0 m -930.62,0 512.15,2.19 m 1370.47,0 -952,0 m -418.47,0 126.83,2.18 m 1243.64,0 -952,0 m -291.64,0 -233.63,2.19 m 1477.27,0 -952,0 m -525.27,0 -804.53,2.19 m 2281.8,0 -952,0 m -1329.8,0 -1023.31,2.18 m 3305.11,0 -952,0 m -2353.11,0 -434.64,2.19 m 3739.75,0 -952,0 m -2787.75,0 244.84,2.19 m 3494.91,0 -952,0 m -2542.91,0 1143.37,2.18 m 2351.54,0 -952,0 m -1399.54,0 1001.93,2.19 m 1349.61,0 -952,0 m -397.61,0 -36.86,2.19 m 1386.47,0 -952,0 m -434.47,0 -1321.71,2.18 m 2708.18,0 -952,0 m -1756.18,0 -1034.21,2.19 m 3742.39,0 -952,0 m -2790.39,0 719.79,2.19 m 3022.6,0 -952,0 m -2070.6,0 1679.5,2.18 m 1343.1,0 -952,0 m -391.1,0 -565.15,2.19 m 1908.25,0 -952,0 m -956.25,0 -1833.54,2.19 m 3741.79,0 -952,0 m -2789.79,0 1548.83,2.18 m 2192.96,0 -952,0 m -1240.96,0 624.59,2.19 m 1568.37,0 -952,0 m -616.37,0 -2185.87,2.19 m 3754.24,0 -952,0 m -2802.24,0 2469.5,2.18 m 1284.74,0 -952,0 m -332.74,0 -2449.59,2.19 m 3734.33,0 -952,0 m -2782.33,0 2461.42,2.19 m 1272.91,0 -952,0 m -320.91,0 -1830.92,2.18 m 3103.83,0 -952,0 m -2151.83,0 -616.83,2.19 m 3720.66,0 -952,0 m -2768.66,0 376,2.19 m 3344.66,0 -952,0 m -2392.66,0 -357.03,2.18 m 3701.69,0 -952,0 m -2749.69,0 1311.14,2.19 m 2390.55,0 -952,0 m -1438.55,0 -1273.2,2.19 m 3663.75,0 -952,0 m -2711.75,0 -63.72,2.18 m 3727.47,0 -952,0 m -2775.47,0 152.89,2.19 m 3574.58,0 -952,0 m -2622.58,0 96.02,2.19 m 3478.56,0 -952,0 m -2526.56,0 186.69,2.18 m 3291.87,0 -952,0 m -2339.87,0 413.89,2.19 m 2877.98,0 -952,0 m -1925.98,0 943.15,2.19 m 1934.83,0 -952,0 m -982.83,0 327.83,2.18 m 1607,0 -952,0 m -655,0 238,2.19 m 1369,0 -952,0 m -417,0 -241.11,2.19 m 1610.11,0 -952,0 m -658.11,0 -332.01,2.18 m 1942.12,0 -952,0 m -990.12,0 -947.42,2.19 m 2889.54,0 -952,0 m -1937.54,0 -415.9,2.19 m 3305.44,0 -952,0 m -2353.44,0 -188.3,2.18 m 3493.74,0 -952,0 m -2541.74,0 -97.63,2.19 m 3591.37,0 -952,0 m -2639.37,0 -152.33,2.19 m 3743.7,0 -952,0 m -2791.7,0 59.7,2.18 m 3684,0 -952,0 m -2732,0 1257.86,2.19 m 2426.14,0 -952,0 m -1474.14,0 -1299.53,2.19 m 3725.67,0 -952,0 m -2773.67,0 344.88,2.18 m 3380.79,0 -952,0 m -2428.79,0 -367.73,2.19 m 3748.52,0 -952,0 m -2796.52,0 597.49,2.19 m 3151.03,0 -952,0 m -2199.03,0 1847.49,2.18 m 1303.54,0 -952,0 m -351.54,0 -2464.67,2.19 m 3768.21,0 -952,0 m -2816.21,0 2447.56,2.19 m 1320.65,0 -952,0 m -368.65,0 -2470.54,2.18 m 3791.19,0 -952,0 m -2839.19,0 2167.21,2.19 m 1623.98,0 -952,0 m -671.98,0 -642.8,2.19 m 2266.78,0 -952,0 m -1314.78,0 -1519.18,2.18 m 3785.96,0 -952,0 m -2833.96,0 1801.07,2.19 m 1984.89,0 -952,0 m -1032.89,0 587.08,2.19 m 1397.81,0 -952,0 m -445.81,0 -1709.86,2.18 m 3107.67,0 -952,0 m -2155.67,0 -687.24,2.19 m 3794.91,0 -952,0 m -2842.91,0 988.76,2.19 m 2806.15,0 -952,0 m -1854.15,0 1350.92,2.18 m 1455.23,0 -952,0 m -503.23,0 37.34,2.19 m 1417.89,0 -952,0 m -465.89,0 -1044.32,2.19 m 2462.21,0 -952,0 m -1510.21,0 -1117.19,2.18 m 3579.4,0 -952,0 m -2627.4,0 -225.5,2.19 m 3804.9,0 -952,0 m -2852.9,0 397.67,2.19 m 3407.23,0 -952,0 m -2455.23,0 999.51,2.18 m 2407.72,0 -952,0 m -1455.72,0 833.91,2.19 m 1573.81,0 -952,0 m -621.81,0 257.07,2.19 m 1316.74,0 -952,0 m -364.74,0 -145.75,2.18 m 1462.49,0 -952,0 m -510.49,0 -551.53,2.19 m 2014.02,0 -952,0 m -1062.02,0 -808.58,2.19 m 2822.6,0 -952,0 m -1870.6,0 -644,2.18 m 3466.6,0 -952,0 m -2514.6,0 -297.69,2.19 m 3764.29,0 -952,0 m -2812.29,0 -53.55,2.19 m 3817.84,0 -952,0 m -2865.84,0 120.59,2.18 m 3697.25,0 -952,0 m -2745.25,0 325.32,2.19 m 3371.93,0 -952,0 m -2419.93,0 518.98,2.19 m 2852.95,0 -952,0 m -1900.95,0 579.56,2.18 m 2273.39,0 -952,0 m -1321.39,0 476.74,2.19 m 1796.65,0 -952,0 m -844.65,0 299.16,2.19 m 1497.49,0 -952,0 m -545.49,0 139.81,2.18 m 1357.68,0 -952,0 m -405.68,0 23.61,2.19 m 1334.07,0 -952,0 m -382.07,0 -72.25,2.19 m 1406.32,0 -952,0 m -454.32,0 -172.12,2.18 m 1578.44,0 -952,0 m -626.44,0 -275.91,2.19 m 1854.35,0 -952,0 m -902.35,0 -360.39,2.19 m 2214.74,0 -952,0 m -1262.74,0 -398.59,2.18 m 2613.33,0 -952,0 m -1661.33,0 -380.14,2.19 m 2993.47,0 -952,0 m -2041.47,0 -317.16,2.19 m 3310.63,0 -952,0 m -2358.63,0 -234.37,2.18 m 3545,0 -952,0 m -2593,0 -154.56,2.19 m 3699.56,0 -952,0 m -2747.56,0 -90.1,2.19 m 3789.66,0 -952,0 m -2837.66,0 -42.57,2.18 m 3832.23,0 -952,0 m -2880.23,0 -6.89,2.19 m 3839.12,0 -952,0 m -2887.12,0 23.97,2.19 m 3815.15,0 -952,0 m -2863.15,0 55.68,2.18 m 3759.47,0 -952,0 m -2807.47,0 90.9,2.19 m 3668.57,0 -952,0 m -2716.57,0 129.04,2.19 m 3539.53,0 -952,0 m -2587.53,0 166.86,2.18 m 3372.67,0 -952,0 m -2420.67,0 199.85,2.19 m 3172.82,0 -952,0 m -2220.82,0 223.72,2.19 m 2949.1,0 -952,0 m -1997.1,0 235.64,2.18 m 2713.46,0 -952,0 m -1761.46,0 234.79,2.19 m 2478.67,0 -952,0 m -1526.67,0 222.46,2.19 m 2256.21,0 -952,0 m -1304.21,0 201.3,2.18 m 2054.91,0 -952,0 m -1102.91,0 174.66,2.19 m 1880.25,0 -952,0 m -928.25,0 145.74,2.19 m 1734.51,0 -952,0 m -782.51,0 117.14,2.18 m 1617.37,0 -952,0 m -665.37,0 90.6,2.19 m 1526.77,0 -952,0 m -574.77,0 67.01,2.19 m 1459.76,0 -952,0 m -507.76,0 46.55,2.18 m 1413.21,0 -952,0 m -461.21,0 28.93,2.19 m 1384.28,0 -952,0 m -432.28,0 13.57,2.19 m 1370.71,0 -952,0 m -418.71,0 -0.19,2.18 m 1370.9,0 -952,0 m -418.9,0 -12.96,2.19 m 1383.86,0 -952,0 m -431.86,0 -25.25,2.19 m 1409.11,0 -952,0 m -457.11,0 -37.39,2.18 m 1446.5,0 -952,0 m -494.5,0 -49.53,2.19 m 1496.03,0 -952,0 m -544.03,0 -61.66,2.19 m 1557.69,0 -952,0 m -605.69,0 -73.58,2.18 m 1631.27,0 -952,0 m -679.27,0 -85.07,2.19 m 1716.34,0 -952,0 m -764.34,0 -95.78,2.19 m 1812.12,0 -952,0 m -860.12,0 -105.37,2.18 m 1917.49,0 -952,0 m -965.49,0 -113.51,2.19 m 2031,0 -952,0 m -1079,0 -119.95,2.19 m 2150.95,0 -952,0 m -1198.95,0 -124.49,2.18 m 2275.44,0 -952,0 m -1323.44,0 -127.05,2.19 m 2402.49,0 -952,0 m -1450.49,0 -495.79,8.75 m 2898.28,0 -952,0 m -1946.28,0 -112.82,2.18 m 3011.1,0 -952,0 m -2059.1,0 -106.01,2.19 m 3117.11,0 -952,0 m -2165.11,0 -98.5,2.19 m 3215.61,0 -952,0 m -2263.61,0 -90.56,2.18 m 3306.17,0 -952,0 m -2354.17,0 -82.43,2.19 m 3388.6,0 -952,0 m -2436.6,0 -74.33,2.19 m 3462.93,0 -952,0 m -2510.93,0 -66.43,2.18 m 3529.36,0 -952,0 m -2577.36,0 -58.85,2.19 m 3588.21,0 -952,0 m -2636.21,0 -51.72,2.19 m 3639.93,0 -952,0 m -2687.93,0 -45.08,2.18 m 3685.01,0 -952,0 m -2733.01,0 -39.01,2.19 m 3724.02,0 -952,0 m -2772.02,0 -33.47,2.19 m 3757.49,0 -952,0 m -2805.49,0 -28.49,2.18 m 3785.98,0 -952,0 m -2833.98,0 -24.05,2.19 m 3810.03,0 -952,0 m -2858.03,0 -20.08,2.19 m 3830.11,0 -952,0 m -2878.11,0 -16.58,2.18 m 3846.69,0 -952,0 m -2894.69,0 -13.47,2.19 m 3860.16,0 -952,0 m -2908.16,0 -10.72,2.19 m 3870.88,0 -952,0 m -2918.88,0 -8.27,2.18 m 3879.15,0 -952,0 m -2927.15,0 -6.08,2.19 m 3885.23,0 -952,0 m -2933.23,0 -4.09,2.19 m 3889.32,0 -952,0 m -2937.32,0 -2.27,2.18 m 3891.59,0 -952,0 m -2939.59,0 -0.58,2.19 m 3892.17,0 -952,0 m -2940.17,0 1.02,2.19 m 3891.15,0 -952,0 m -2939.15,0 2.56,2.18 m 3888.59,0 -952,0 m -2936.59,0 4.04,2.19 m 3884.55,0 -952,0 m -2932.55,0 5.52,2.19 m 3879.03,0 -952,0 m -2927.03,0 6.98,2.18 m 3872.05,0 -952,0 m -2920.05,0 8.46,2.19 m 3863.59,0 -952,0 m -2911.59,0 9.94,2.19 m 3853.65,0 -952,0 m -2901.65,0 11.45,2.18 m 3842.2,0 -952,0 m -2890.2,0 12.98,2.19 m 3829.22,0 -952,0 m -2877.22,0 14.54,2.19 m 3814.68,0 -952,0 m -2862.68,0 16.1,2.18 m 3798.58,0 -952,0 m -2846.58,0 17.69,2.19 m 3780.89,0 -952,0 m -2828.89,0 19.28,2.19 m 3761.61,0 -952,0 m -2809.61,0 20.88,2.18 m 3740.73,0 -952,0 m -2788.73,0 22.46,2.19 m 3718.27,0 -952,0 m -2766.27,0 24.04,2.19 m 3694.23,0 -952,0 m -2742.23,0 25.59,2.18 m 3668.64,0 -952,0 m -2716.64,0 27.1,2.19 m 3641.54,0 -952,0 m -2689.54,0 28.58,2.19 m 3612.96,0 -952,0 m -2660.96,0 30,2.18 m 3582.96,0 -952,0 m -2630.96,0 31.37,2.19 m 3551.59,0 -952,0 m -2599.59,0 32.67,2.19 m 3518.92,0 -952,0 m -2566.92,0 33.9,2.18 m 3485.02,0 -952,0 m -2533.02,0 35.05,2.19 m 3449.97,0 -952,0 m -2497.97,0 36.11,2.19 m 3413.86,0 -952,0 m -2461.86,0 37.09,2.18 m 3376.77,0 -952,0 m -2424.77,0 37.98,2.19 m 3338.79,0 -952,0 m -2386.79,0 38.78,2.19 m 3300.01,0 -952,0 m -2348.01,0 79.54,4.37 m 3220.47,0 -952,0 m -2268.47,0 81.55,4.37 m 3138.92,0 -952,0 m -2186.92,0 82.79,4.38 m 3056.13,0 -952,0 m -2104.13,0 166.42,8.74 m 2889.71,0 -952,0 m -1937.71,0 82.3,4.38 m 2807.41,0 -952,0 m -1855.41,0 80.91,4.37 m 2726.5,0 -952,0 m -1774.5,0 79.03,4.37 m 2647.47,0 -952,0 m -1695.47,0 76.72,4.38 m 2570.75,0 -952,0 m -1618.75,0 74.08,4.37 m 2496.67,0 -952,0 m -1544.67,0 71.14,4.37 m 2425.53,0 -952,0 m -1473.53,0 34.41,2.19 m 2391.12,0 -952,0 m -1439.12,0 33.6,2.19 m 2357.52,0 -952,0 m -1405.52,0 32.78,2.18 m 2324.74,0 -952,0 m -1372.74,0 31.95,2.19 m 2292.79,0 -952,0 m -1340.79,0 31.1,2.19 m 2261.69,0 -952,0 m -1309.69,0 30.24,2.18 m 2231.45,0 -952,0 m -1279.45,0 29.39,2.19 m 2202.06,0 -952,0 m -1250.06,0 28.53,2.19 m 2173.53,0 -952,0 m -1221.53,0 27.67,2.18 m 2145.86,0 -952,0 m -1193.86,0 26.81,2.19 m 2119.05,0 -952,0 m -1167.05,0 25.96,2.19 m 2093.09,0 -952,0 m -1141.09,0 25.12,2.18 m 2067.97,0 -952,0 m -1115.97,0 24.28,2.19 m 2043.69,0 -952,0 m -1091.69,0 23.45,2.19 m 2020.24,0 -952,0 m -1068.24,0 22.64,2.18 m 1997.6,0 -952,0 m -1045.6,0 21.83,2.19 m 1975.77,0 -952,0 m -1023.77,0 21.04,2.19 m 1954.73,0 -952,0 m -1002.73,0 20.26,2.18 m 1934.47,0 -952,0 m -982.47,0 19.5,2.19 m 1914.97,0 -952,0 m -962.97,0 18.75,2.19 m 1896.22,0 -952,0 m -944.22,0 35.32,4.37 m 1860.9,0 -952,0 m -908.9,0 32.52,4.37 m 1828.38,0 -952,0 m -876.38,0 29.85,4.38 m 1798.53,0 -952,0 m -846.53,0 27.31,4.37 m 1771.22,0 -952,0 m -819.22,0 24.9,4.37 m 1746.32,0 -952,0 m -794.32,0 22.62,4.38 m 1723.7,0 -952,0 m -771.7,0 20.47,4.37 m 1703.23,0 -952,0 m -751.23,0 18.44,4.37 m 1684.79,0 -952,0 m -732.79,0 16.52,4.38 m 1668.27,0 -952,0 m -716.27,0 14.71,4.37 m 1653.56,0 -952,0 m -701.56,0 13.01,4.37 m 1640.55,0 -952,0 m -688.55,0 11.39,4.38 m 1629.16,0 -952,0 m -677.16,0 9.88,4.37 m 1619.28,0 -952,0 m -667.28,0 8.44,4.37 m 1610.84,0 -952,0 m -658.84,0 7.09,4.38 m 1603.75,0 -952,0 m -651.75,0 5.81,4.37 m 1597.94,0 -952,0 m -645.94,0 4.59,4.37 m 1593.35,0 -952,0 m -641.35,0 3.45,4.38 m 1589.9,0 -952,0 m -637.9,0 2.35,4.37 m 1587.55,0 -952,0 m -635.55,0 1.32,4.37 m 1586.23,0 -952,0 m -634.23,0 0.32,4.38 m 1585.91,0 -952,0 m -633.91,0 -0.61,4.37 m 1586.52,0 -952,0 m -634.52,0 -1.51,4.37 m 1588.03,0 -952,0 m -636.03,0 -2.36,4.38 m 1590.39,0 -952,0 m -638.39,0 -3.19,4.37 m 1593.58,0 -952,0 m -641.58,0 -3.97,4.37 m 1597.55,0 -952,0 m -645.55,0 -4.73,4.38 m 1602.28,0 -952,0 m -650.28,0 -11.58,8.74 m 1613.86,0 -952,0 m -661.86,0 -14.26,8.75 m 1628.12,0 -952,0 m -676.12,0 -16.72,8.75 m 1644.84,0 -952,0 m -692.84,0 -19.02,8.74 m 1663.86,0 -952,0 m -711.86,0 -21.14,8.75 m 1685,0 -952,0 m -733,0 -23.11,8.75 m 1708.11,0 -952,0 m -756.11,0 -24.94,8.74 m 1733.05,0 -952,0 m -781.05,0 -26.63,8.75 m 1759.68,0 -952,0 m -807.68,0 -28.19,8.75 m 1787.87,0 -952,0 m -835.87,0 -29.62,8.74 m 1817.49,0 -952,0 m -865.49,0 -30.93,8.75 m 1848.42,0 -952,0 m -896.42,0 -32.13,8.75 m 1880.55,0 -952,0 m -928.55,0 -33.2,8.74 m 1913.75,0 -952,0 m -961.75,0 -34.17,8.75 m 1947.92,0 -952,0 m -995.92,0 -35.04,8.75 m 1982.96,0 -952,0 m -1030.96,0 -35.79,8.74 m 2018.75,0 -952,0 m -1066.75,0 -73.47,17.5 m 2092.22,0 -952,0 m -1140.22,0 -75.37,17.49 m 2167.59,0 -952,0 m -1215.59,0 -76.56,17.49 m 2244.15,0 -952,0 m -1292.15,0 -154.34,34.99 m 2398.49,0 -952,0 m -1446.49,0 -152.6,34.99 m 2551.09,0 -952,0 m -1599.09,0 -74.64,17.49 m 2625.73,0 -952,0 m -1673.73,0 -73.1,17.49 m 2698.83,0 -952,0 m -1746.83,0 -71.32,17.5 m 2770.15,0 -952,0 m -1818.15,0 -69.34,17.49 m 2839.49,0 -952,0 m -1887.49,0 -67.2,17.49 m 2906.69,0 -952,0 m -1954.69,0 -64.95,17.5 m 2971.64,0 -952,0 m -2019.64,0 -62.6,17.49 m 3034.24,0 -952,0 m -2082.24,0 -60.21,17.49 m 3094.45,0 -952,0 m -2142.45,0 -57.78,17.5 m 3152.23,0 -952,0 m -2200.23,0 -55.33,17.49 m 3207.56,0 -952,0 m -2255.56,0 -52.91,17.49 m 3260.47,0 -952,0 m -2308.47,0 -50.5,17.5 m 3310.97,0 -952,0 m -2358.97,0 -48.13,17.49 m 3359.1,0 -952,0 m -2407.1,0 -45.8,17.49 m 3404.9,0 -952,0 m -2452.9,0 -43.53,17.5 m 3448.43,0 -952,0 m -2496.43,0 -41.31,17.49 m 3489.74,0 -952,0 m -2537.74,0 -39.16,17.49 m 3528.9,0 -952,0 m -2576.9,0 -37.07,17.5 m 3565.97,0 -952,0 m -2613.97,0 -35.06,17.49 m 3601.03,0 -952,0 m -2649.03,0 -33.1,17.49 m 3634.13,0 -952,0 m -2682.13,0 -31.23,17.5 m 3665.36,0 -952,0 m -2713.36,0 -29.43,17.49 m 3694.79,0 -952,0 m -2742.79,0 -27.68,17.49 m 3722.47,0 -952,0 m -2770.47,0 -26.01,17.5 m 3748.48,0 -952,0 m -2796.48,0 -24.42,17.49 m 3772.9,0 -952,0 m -2820.9,0 -22.87,17.49 m 3795.77,0 -952,0 m -2843.77,0 -21.4,17.5 m 3817.17,0 -952,0 m -2865.17,0 -19.98,17.49 m 3837.15,0 -952,0 m -2885.15,0 -18.63,17.49 m 3855.78,0 -952,0 m -2903.78,0 -17.33,17.5 m 3873.11,0 -952,0 m -2921.11,0 -16.09,17.49 m 3889.2,0 -952,0 m -2937.2,0 -14.89,17.49 m 3904.09,0 -952,0 m -2952.09,0 -13.76,17.5 m 3917.85,0 -952,0 m -2965.85,0 -12.66,17.49 m 3930.51,0 -952,0 m -2978.51,0 -11.62,17.49 m 3942.13,0 -952,0 m -2990.13,0 -10.62,17.5 m 3952.75,0 -952,0 m -3000.75,0 -9.65,17.49 m 3962.4,0 -952,0 m -3010.4,0 -8.73,17.49 m 3971.13,0 -952,0 m -3019.13,0 -7.85,17.5 m 3978.98,0 -952,0 m -3026.98,0 -7,17.49 m 3985.98,0 -952,0 m -3033.98,0 -6.19,17.49 m 3992.17,0 -952,0 m -3040.17,0 -5.41,17.5 m 3997.58,0 -952,0 m -3045.58,0 -4.66,17.49 m 4002.24,0 -952,0 m -3050.24,0 -7.2,34.99 m 4009.44,0 -952,0 m -3057.44,0 -4.54,34.98 m 4013.98,0 -952,0 m -3061.98,0 -2.08,34.99 m 4016.06,0 -952,0 m -3064.06,0 0.19,34.99 m 4015.87,0 -952,0 m -3063.87,0 2.31,34.98 m 4013.56,0 -952,0 m -3061.56,0 4.27,34.99 m 4009.29,0 -952,0 m -3057.29,0 6.1,34.99 m 4003.19,0 -952,0 m -3051.19,0 7.81,34.98 m 3995.38,0 -952,0 m -3043.38,0 9.42,34.99 m 3985.96,0 -952,0 m -3033.96,0 10.91,34.99 m 3975.05,0 -952,0 m -3023.05,0 12.31,34.98 m 3962.74,0 -952,0 m -3010.74,0 13.64,34.99 m 3949.1,0 -952,0 m -2997.1,0 14.88,34.99 m 3934.22,0 -952,0 m -2982.22,0 16.06,34.98 m 3918.16,0 -952,0 m -2966.16,0 17.16,34.99 m 3901,0 -952,0 m -2949,0 18.22,34.99 m 3882.78,0 -952,0 m -2930.78,0 19.2,34.98 m 3863.58,0 -952,0 m -2911.58,0 20.15,34.99 m 3843.43,0 -952,0 m -2891.43,0 21.04,34.99 m 3822.39,0 -952,0 m -2870.39,0 21.89,34.98 m 3800.5,0 -952,0 m -2848.5,0 22.7,34.99 m 3777.8,0 -952,0 m -2825.8,0 23.46,34.99 m 3754.34,0 -952,0 m -2802.34,0 24.2,34.98 m 3730.14,0 -952,0 m -2778.14,0 24.89,34.99 m 3705.25,0 -952,0 m -2753.25,0 25.55,34.99 m 3679.7,0 -952,0 m -2727.7,0 26.18,34.98 m 3653.52,0 -952,0 m -2701.52,0 26.78,34.99 m 3626.74,0 -952,0 m -2674.74,0 27.36,34.99 m 3599.38,0 -952,0 m -2647.38,0 27.9,34.98 m 3571.48,0 -952,0 m -2619.48,0 28.42,34.99 m 3543.06,0 -952,0 m -2591.06,0 28.92,34.99 m 3514.14,0 -952,0 m -2562.14,0 29.38,34.98 m 3484.76,0 -952,0 m -2532.76,0 29.83,34.99 m 3454.93,0 -952,0 m -2502.93,0 30.25,34.99 m 3424.68,0 -952,0 m -2472.68,0 30.66,34.98 m 3394.02,0 -952,0 m -2442.02,0 31.03,34.99 m 3362.99,0 -952,0 m -2410.99,0 31.39,34.99 m 3331.6,0 -952,0 m -2379.6,0 31.73,34.98 m 3299.87,0 -952,0 m -2347.87,0 32.05,34.99 m 3267.82,0 -952,0 m -2315.82,0 32.35,34.99 m 3235.47,0 -952,0 m -2283.47,0 32.62,34.98 m 3202.85,0 -952,0 m -2250.85,0 32.88,34.99 m 3169.97,0 -952,0 m -2217.97,0 33.13,34.99 m 3136.84,0 -952,0 m -2184.84,0 33.35,34.98 m 3103.49,0 -952,0 m -2151.49,0 33.55,34.99 m 3069.94,0 -952,0 m -2117.94,0 33.73,34.99 m 3036.21,0 -952,0 m -2084.21,0 33.91,34.98 m 3002.3,0 -952,0 m -2050.3,0 34.05,34.99 m 2968.25,0 -952,0 m -2016.25,0 34.19,34.99 m 2934.06,0 -952,0 m -1982.06,0 17.14,17.49 m 2916.92,0 -952,0"
         style="fill:none;stroke:#0066e6;stroke-opacity:1;stroke-width:1;stroke-linecap:butt;stroke-linejoin:miter;stroke-miterlimit:10;stroke-dasharray:none"
         id="path3016" /></g><g
       inkscape:label="ink_ext_XXXXXX"
       id="g3045"
       transform="translate(0.01789274,0.05152436)"><g
         transform="scale(0.1,0.1)"
         id="g3047"><path
           id="path3049"
           style="fill:none;stroke:#0066e6;stroke-width:5;stroke-linecap:butt;stroke-linejoin:miter;stroke-miterlimit:10;stroke-opacity:1;stroke-dasharray:none"
           d="m 4071.71,500 -0.76,2.191 -12.34,34.981 -12.75,34.988 -13.14,34.988 -13.53,34.981 -13.89,34.992 -14.25,34.988 -14.58,34.981 -14.9,34.988 -15.21,34.992 -15.5,34.981 -15.77,34.988 -16.02,34.992 -16.26,34.981 -16.47,34.988 -16.66,34.99 -16.84,34.98 -16.99,34.99 -17.12,34.99 -17.23,34.98 -17.31,34.99 -17.37,34.99 -17.41,34.98 -17.4,34.99 -17.39,34.99 -17.33,34.98 -17.25,34.99 -17.13,34.99 -16.99,34.98 -16.8,34.99 -16.59,34.99 -16.33,34.98 -16.03,34.99 -15.69,34.99 -15.31,34.98 -14.88,34.99 -14.4,34.99 -13.87,34.98 -13.28,34.99 -12.65,34.99 -11.93,34.98 -11.17,34.99 -10.32,34.99 -9.41,34.98 -8.42,34.99 -7.35,34.99 -6.17,34.98 -4.92,34.99 -3.56,34.99 -2.09,34.98 -0.5,34.99 1.2,34.99 3.04,34.98 5.01,34.99 7.12,34.99 9.39,34.98 11.8,34.99 14.39,34.99 17.12,34.98 20.02,34.99 11.14,17.49 11.92,17.5 12.72,17.49 13.53,17.49 14.34,17.5 15.19,17.49 16.02,17.49 16.87,17.5 17.72,17.49 18.56,17.49 19.39,17.5 20.22,17.49 21.01,17.49 21.78,17.5 45.69,34.98 48.15,34.99 49.97,34.99 50.92,34.98 50.73,34.99 49.17,34.99 23.51,17.49 22.51,17.49 21.29,17.5 19.87,17.49 18.24,17.49 16.42,17.5 14.46,17.49 12.35,17.49 10.14,17.5 7.85,17.49 5.43,17.49 2.83,17.5 0.33,8.74 -0.49,8.75 -1.4,8.75 -2.47,8.74 -3.73,8.75 -5.23,8.75 -7.07,8.74 -9.33,8.75 -12.12,8.75 -7.31,4.37 -8.27,4.37 -9.34,4.38 -10.52,4.37 -11.84,4.37 -13.29,4.38 -14.9,4.37 -16.68,4.37 -18.62,4.38 -20.77,4.37 -23.1,4.37 -25.65,4.38 -28.41,4.37 -15.31,2.19 -16.09,2.18 -16.89,2.19 -17.73,2.19 -18.58,2.18 -19.47,2.19 -20.39,2.19 -21.33,2.18 -22.3,2.19 -23.29,2.19 -24.31,2.18 -25.35,2.19 -26.42,2.19 -27.49,2.18 -28.59,2.19 -29.7,2.19 -30.83,2.18 -31.96,2.19 -33.09,2.19 -34.24,2.18 -35.37,2.19 -36.5,2.19 -37.62,2.18 -38.73,2.19 -39.8,2.19 -40.87,2.18 -41.88,2.19 -42.87,2.19 -43.81,2.18 -44.7,2.19 -45.53,2.19 -46.29,2.18 -94.61,4.38 -96.73,4.37 -98.13,4.37 -388.57,17.5 -46.11,2.18 -45.13,2.19 -44.05,2.19 -42.83,2.18 -41.51,2.19 -40.06,2.19 -38.52,2.18 -36.87,2.19 -35.14,2.19 -33.32,2.18 -31.42,2.19 -29.46,2.19 -27.43,2.18 -25.34,2.19 -23.21,2.19 -21.03,2.18 -18.8,2.19 -16.53,2.19 -14.22,2.18 -11.85,2.19 -9.43,2.19 -6.94,2.18 -4.36,2.19 -1.68,2.19 1.11,2.18 4.07,2.19 7.19,2.19 10.52,2.18 14.1,2.19 17.95,2.19 22.1,2.18 26.61,2.19 31.48,2.19 36.73,2.18 42.39,2.19 48.43,2.19 54.85,2.18 61.61,2.19 68.63,2.19 75.82,2.18 83.06,2.19 90.2,2.19 97.05,2.18 103.42,2.19 109.06,2.19 113.73,2.18 117.23,2.19 119.31,2.19 464.59,8.74 104.23,2.19 96.28,2.19 87.11,2.18 77.07,2.19 66.51,2.19 55.8,2.18 45.28,2.19 35.15,2.19 25.54,2.18 16.41,2.19 7.48,2.19 -1.65,2.18 -11.64,2.19 -23.28,2.19 -37.43,2.18 -54.88,2.19 -76.25,2.19 -101.65,2.18 -130.5,2.19 -161.29,2.19 -191.55,2.18 -217.95,2.19 -236.74,2.19 -244.57,2.18 -239.28,2.19 -220.67,2.19 -190.73,2.18 -153.21,2.19 -112.48,2.19 -72.02,2.18 -33.01,2.19 6.38,2.19 50.8,2.18 105.91,2.19 175.04,2.19 254.78,2.18 331.43,2.19 382.59,2.19 386.51,2.18 335.96,2.19 246.08,2.19 146.04,2.18 57.99,2.19 -21.5,2.19 -121.86,2.18 -272.83,2.19 -456.69,2.19 -581.13,2.18 -544.97,2.19 -360.15,2.19 -141.66,2.18 59.87,2.19 326.63,2.19 667.47,2.18 794.91,2.19 512.15,2.19 126.83,2.18 -233.63,2.19 -804.53,2.19 -1023.31,2.18 -434.64,2.19 244.84,2.19 1143.37,2.18 1001.93,2.19 -36.86,2.19 -1321.71,2.18 -1034.21,2.19 719.79,2.19 1679.5,2.18 -565.15,2.19 -1833.54,2.19 1548.83,2.18 624.59,2.19 -2185.87,2.19 2469.5,2.18 -2449.59,2.19 2461.42,2.19 -1830.92,2.18 -616.83,2.19 376,2.19 -357.03,2.18 1311.14,2.19 -1273.2,2.19 -63.72,2.18 152.89,2.19 96.02,2.19 186.69,2.18 413.89,2.19 943.15,2.19 327.83,2.18 238,2.19 -241.11,2.19 -332.01,2.18 -947.42,2.19 -415.9,2.19 -188.3,2.18 -97.63,2.19 -152.33,2.19 59.7,2.18 1257.86,2.19 -1299.53,2.19 344.88,2.18 -367.73,2.19 597.49,2.19 1847.49,2.18 -2464.67,2.19 2447.56,2.19 -2470.54,2.18 2167.21,2.19 -642.8,2.19 -1519.18,2.18 1801.07,2.19 587.08,2.19 -1709.86,2.18 -687.24,2.19 988.76,2.19 1350.92,2.18 37.34,2.19 -1044.32,2.19 -1117.19,2.18 -225.5,2.19 397.67,2.19 999.51,2.18 833.91,2.19 257.07,2.19 -145.75,2.18 -551.53,2.19 -808.58,2.19 -644,2.18 -297.69,2.19 -53.55,2.19 120.59,2.18 325.32,2.19 518.98,2.19 579.56,2.18 476.74,2.19 299.16,2.19 139.81,2.18 23.61,2.19 -72.25,2.19 -172.12,2.18 -275.91,2.19 -360.39,2.19 -398.59,2.18 -380.14,2.19 -317.16,2.19 -234.37,2.18 -154.56,2.19 -90.1,2.19 -42.57,2.18 -6.89,2.19 23.97,2.19 55.68,2.18 90.9,2.19 129.04,2.19 166.86,2.18 199.85,2.19 223.72,2.19 235.64,2.18 234.79,2.19 222.46,2.19 201.3,2.18 174.66,2.19 145.74,2.19 117.14,2.18 90.6,2.19 67.01,2.19 46.55,2.18 28.93,2.19 13.57,2.19 -0.19,2.18 -12.96,2.19 -25.25,2.19 -37.39,2.18 -49.53,2.19 -61.66,2.19 -73.58,2.18 -85.07,2.19 -95.78,2.19 -105.37,2.18 -113.51,2.19 -119.95,2.19 -124.49,2.18 -127.05,2.19 -495.79,8.75 -112.82,2.18 -106.01,2.19 -98.5,2.19 -90.56,2.18 -82.43,2.19 -74.33,2.19 -66.43,2.18 -58.85,2.19 -51.72,2.19 -45.08,2.18 -39.01,2.19 -33.47,2.19 -28.49,2.18 -24.05,2.19 -20.08,2.19 -16.58,2.18 -13.47,2.19 -10.72,2.19 -8.27,2.18 -6.08,2.19 -4.09,2.19 -2.27,2.18 -0.58,2.19 1.02,2.19 2.56,2.18 4.04,2.19 5.52,2.19 6.98,2.18 8.46,2.19 9.94,2.19 11.45,2.18 12.98,2.19 14.54,2.19 16.1,2.18 17.69,2.19 19.28,2.19 20.88,2.18 22.46,2.19 24.04,2.19 25.59,2.18 27.1,2.19 28.58,2.19 30,2.18 31.37,2.19 32.67,2.19 33.9,2.18 35.05,2.19 36.11,2.19 37.09,2.18 37.98,2.19 38.78,2.19 79.54,4.37 81.55,4.37 82.79,4.38 166.42,8.74 82.3,4.38 80.91,4.37 79.03,4.37 76.72,4.38 74.08,4.37 71.14,4.37 34.41,2.19 33.6,2.19 32.78,2.18 31.95,2.19 31.1,2.19 30.24,2.18 29.39,2.19 28.53,2.19 27.67,2.18 26.81,2.19 25.96,2.19 25.12,2.18 24.28,2.19 23.45,2.19 22.64,2.18 21.83,2.19 21.04,2.19 20.26,2.18 19.5,2.19 18.75,2.19 35.32,4.37 32.52,4.37 29.85,4.38 27.31,4.37 24.9,4.37 22.62,4.38 20.47,4.37 18.44,4.37 16.52,4.38 14.71,4.37 13.01,4.37 11.39,4.38 9.88,4.37 8.44,4.37 7.09,4.38 5.81,4.37 4.59,4.37 3.45,4.38 2.35,4.37 1.32,4.37 0.32,4.38 -0.61,4.37 -1.51,4.37 -2.36,4.38 -3.19,4.37 -3.97,4.37 -4.73,4.38 -11.58,8.74 -14.26,8.75 -16.72,8.75 -19.02,8.74 -21.14,8.75 -23.11,8.75 -24.94,8.74 -26.63,8.75 -28.19,8.75 -29.62,8.74 -30.93,8.75 -32.13,8.75 -33.2,8.74 -34.17,8.75 -35.04,8.75 -35.79,8.74 -73.47,17.5 -75.37,17.49 -76.56,17.49 -154.34,34.99 -152.6,34.99 -74.64,17.49 -73.1,17.49 -71.32,17.5 -69.34,17.49 -67.2,17.49 -64.95,17.5 -62.6,17.49 -60.21,17.49 -57.78,17.5 -55.33,17.49 -52.91,17.49 -50.5,17.5 -48.13,17.49 -45.8,17.49 -43.53,17.5 -41.31,17.49 -39.16,17.49 -37.07,17.5 -35.06,17.49 -33.1,17.49 -31.23,17.5 -29.43,17.49 -27.68,17.49 -26.01,17.5 -24.42,17.49 -22.87,17.49 -21.4,17.5 -19.98,17.49 -18.63,17.49 -17.33,17.5 -16.09,17.49 -14.89,17.49 -13.76,17.5 -12.66,17.49 -11.62,17.49 -10.62,17.5 -9.65,17.49 -8.73,17.49 -7.85,17.5 -7,17.49 -6.19,17.49 -5.41,17.5 -4.66,17.49 -7.2,34.99 -4.54,34.98 -2.08,34.99 0.19,34.99 2.31,34.98 4.27,34.99 6.1,34.99 7.81,34.98 9.42,34.99 10.91,34.99 12.31,34.98 13.64,34.99 14.88,34.99 16.06,34.98 17.16,34.99 18.22,34.99 19.2,34.98 20.15,34.99 21.04,34.99 21.89,34.98 22.7,34.99 23.46,34.99 24.2,34.98 24.89,34.99 25.55,34.99 26.18,34.98 26.78,34.99 27.36,34.99 27.9,34.98 28.42,34.99 28.92,34.99 29.38,34.98 29.83,34.99 30.25,34.99 30.66,34.98 31.03,34.99 31.39,34.99 31.73,34.98 32.05,34.99 32.35,34.99 32.62,34.98 32.88,34.99 33.13,34.99 33.35,34.98 33.55,34.99 33.73,34.99 33.91,34.98 34.05,34.99 34.19,34.99 17.14,17.49"
           inkscape:connector-curvature="0" /><path
           id="path3051"
           style="fill:none;stroke:#000000;stroke-width:10;stroke-linecap:butt;stroke-linejoin:miter;stroke-miterlimit:10;stroke-opacity:1;stroke-dasharray:none"
           d="m 500,500 4760,0 0,6560 -4760,0 0,-6560 z"
           inkscape:connector-curvature="0" /><g
           transform="scale(10,10)"
           id="g3053"><text
             id="text3055"
             transform="matrix(-1,0,0,1,496.25,26)"><tspan
               id="tspan3057"
               sodipodi:role="line"
               y="0"
               x="0 3.9960001 10.668 14.004 74.375038 78.37104 85.043037 88.379044 148.75008 152.74608 159.41808 162.75407 223.12512 229.79712 233.13312 297.50015 304.17215 307.50815 371.87521 378.54721 381.88321 446.25024 452.92224 456.25824"
               style="font-size:12px;font-variant:normal;font-weight:normal;writing-mode:lr-tb;fill:#000000;fill-opacity:1;fill-rule:nonzero;stroke:none;font-family:Helvetica;-inkscape-font-specification:Helvetica">-1.5-1.0-0.50.00.51.01.5</tspan></text>
</g><path
           id="path3059"
           style="fill:none;stroke:#000000;stroke-width:4;stroke-linecap:butt;stroke-linejoin:miter;stroke-miterlimit:10;stroke-opacity:1;stroke-dasharray:none"
           d="m 4962.5,500 0,-80 m -743.75,80 0,-80 m -743.75,80 0,-80 m -743.75,80 0,-80 m -743.75,80 0,-80 m -743.75,80 0,-80 M 500,500 l 0,-80"
           inkscape:connector-curvature="0" /><g
           transform="scale(10,10)"
           id="g3061"><text
             id="text3063"
             transform="matrix(0,1,1,0,550,50)"><tspan
               id="tspan3065"
               sodipodi:role="line"
               y="0"
               x="0 3.9960001 164.0004 167.9964 328.00079 492.00119 656.00159"
               style="font-size:12px;font-variant:normal;font-weight:normal;writing-mode:lr-tb;fill:#000000;fill-opacity:1;fill-rule:nonzero;stroke:none;font-family:Helvetica;-inkscape-font-specification:Helvetica">-2-1012</tspan></text>
</g><path
           id="path3067"
           style="fill:none;stroke:#000000;stroke-width:4;stroke-linecap:butt;stroke-linejoin:miter;stroke-miterlimit:10;stroke-opacity:1;stroke-dasharray:none"
           d="m 5260,500 80,0 m -80,1640 80,0 m -80,1640 80,0 m -80,1640 80,0 m -80,1640 80,0"
           inkscape:connector-curvature="0" /></g></g></g></svg>